<?xml version="1.0" encoding="utf-8"?>
<!-- Generator: Adobe Illustrator 22.0.0, SVG Export Plug-In . SVG Version: 6.00 Build 0)  -->
<svg version="1.1" id="Layer_1" xmlns="http://www.w3.org/2000/svg" xmlns:xlink="http://www.w3.org/1999/xlink" x="0px" y="0px"
	 viewBox="0 0 351 350.9" style="enable-background:new 0 0 351 350.9;" xml:space="preserve">
<style type="text/css">
	.st0{fill:#FFFFFF;}
	.st1{fill:#DBDBDB;}
	.st2{fill:#1B8C03;}
	.st3{fill:#303030;}
</style>
<g>
	<path class="st0" d="M175.5,349.3c-95.9,0-173.8-78-173.8-173.8c0-95.9,78-173.8,173.8-173.8s173.8,78,173.8,173.8
		S271.3,349.3,175.5,349.3z"/>
	<path class="st1" d="M175.4,3.2c95.1,0,172.3,77.1,172.3,172.3s-77.1,172.3-172.3,172.3c-95.1,0-172.3-77.1-172.3-172.3
		S80.3,3.2,175.4,3.2 M175.4,0c-23.7,0-46.7,4.6-68.3,13.8c-20.8,8.8-39.6,21.5-55.7,37.6s-28.8,34.9-37.6,55.8
		C4.7,128.8,0,151.8,0,175.4s4.6,46.7,13.8,68.3c8.8,20.9,21.5,39.7,37.6,55.8s34.9,28.8,55.8,37.6c21.6,9.1,44.6,13.8,68.3,13.8
		s46.7-4.6,68.3-13.8c20.9-8.8,39.7-21.5,55.8-37.6c16.1-16.1,28.8-34.9,37.6-55.8c9.1-21.6,13.8-44.6,13.8-68.3
		s-4.6-46.7-13.8-68.3c-8.8-20.9-21.5-39.7-37.6-55.8s-34.9-28.8-55.8-37.6C222.1,4.7,199.1,0,175.4,0L175.4,0z"/>
</g>
<g>
	<path class="st2" d="M185.3,229.8c-1.6-0.6-3-1.7-4-3.1c-5.2-6.9-10.8-13.3-15.5-20.4c-3.6-5.4-6.4-11.3-8.1-17.5
		c-2.5-9.8,0.1-18,7.2-24.9c3.9-3.7,8-7,12-10.7c5-4.5,8.6-10.4,10.1-17c0.9-3.9,1.1-7.9,0.6-11.9c-0.9-9.1-4.2-17.5-7.8-25.9
		c-0.5-1.3-0.5-1.3,0.8-1.3c4.3,0.1,8.5,1,12.7,1.6c6.2,0.9,11.8,3.4,17.5,5.9c5.7,2.4,10.6,7.3,14.8,12.2c0.7,0.8,1.1,1.8,1.3,2.8
		c-0.8-0.3-1.6-0.7-2.2-1.4c-1-0.9-1.9-1.8-2.8-2.8c-0.9-1-2-1.8-3.3-2.3c-6.9-3-14.2-5.1-21.6-6.1c-2.9-0.5-5.9-0.8-8.8-1.1
		c-0.8-0.1-0.8,0.1-0.6,0.8c0.8,2.9,2.2,5.4,3.3,8.2c2,4.8,3.4,9.9,4.2,15c1.6,12.4-1.6,23.2-10.8,32c-3.2,3.1-6.7,5.7-9.9,8.6
		c-2.6,2.3-5,4.9-6.9,7.9c-3.2,5-3.8,10.3-2.8,16c1.3,7.6,5.1,14.1,9.5,20.3c3.2,4.3,6.5,8.5,9.5,12.9L185.3,229.8z"/>
	<path class="st2" d="M122.8,167.8c0-4.3,1.3-7.8,4.2-10.6c1.5-1.2,1.9-3.3,1.1-5.1c-1.1-2.9-0.2-5,2.7-6.1c0.6-0.3,0.7-0.5,0.6-1.2
		c-0.6-3.3-0.6-3.3,2.1-5.2c0.4-0.3,0.7-0.8,0.6-1.3c0-1.9-0.2-3.7-0.5-5.5c-0.3-2.7,0.4-4.1,2.8-5.4c2.2-1.2,4.6-1.8,7.1-2
		c1.8,0,3.6-0.2,5.3-0.6c1.7-0.3,3-1.8,2.9-3.5c0-0.5,0.2-1.1,0.5-1.5c2.5-5.5,6.9-9.4,11.9-12.6c3.2-1.9,6.4-3.6,9.8-5.2
		c0.5-0.2,0.9-0.5,1.4-0.1c0.5,0.4,0,0.7,0,1.1c-0.1,2.2-0.2,4.2-0.3,6.4c-0.1,2.2-0.1,2.4-2.2,3.1c-2.6,0.8-5.2,2-7.5,3.5
		c-0.4,0.2-0.9,0.4-1.4,0.5c-2.8,0.7-5.1,2.4-7.2,4.3c-0.1,0.1-0.2,0.3-0.3,0.5c-0.5,2.1-1.9,3.6-2.7,5.5c-0.6,1.3-1.7,2.4-3,3.1
		c-1.8,0.9-3.7,1.5-5.7,1.8c-1.9,0.4-3.9,0.4-5.8,0.8c-1.9,0.5-2.9,1.9-1.8,4c0.6,0.9,1,1.8,1.4,2.8c0.6,1.4,0.1,3-1.1,3.8l-2.6,1.7
		c-0.6,0.3-0.9,0.9-0.8,1.5c0.1,1.1,0.1,2-1.2,2.5s-1.1,1.6-0.6,2.9c0.5,1.3,1.4,3,1.6,4.6c0.3,1,0,2.1-0.8,2.8
		c-1,1-1.7,2.1-2.1,3.4c-0.4,1.1-0.8,2.3-1.3,3.3c-0.5,0.8-0.3,1.9,0.5,2.4c2.1,2.1,4.6,3.8,7.3,4.9c2.6,1.2,5.4,2.1,7.9,3.7
		c4.2,2.8,3.7,1.7,2.3,6.2c-0.6,2.1-0.7,2-2.7,1.1c-5.4-2.7-10.9-5.2-15.9-8.7c-1.5-1.1-2.9-2.3-4.3-3.4
		C123.4,171,122.4,169.4,122.8,167.8z"/>
	<path class="st2" d="M96.5,181.8c0.2-5.3,2.4-9.9,5.6-14c0.6-0.8,1.4-1.6,2.2-2.4s0.5-0.5,0.8,0.1c2.8,5.9,4.1,11.8,0.8,18
		c-1.4,2.6-3.6,4.8-6.2,6.1c-0.6,0.3-0.9,0.2-1.3-0.5C97.1,186.8,96.5,184.3,96.5,181.8z"/>
	<path class="st2" d="M240,236.4l-0.4,0.4c-3.5,2.7-7.6,4.7-11.9,5.8c-4.7,1.1-9.7,0.3-13.7-2.3c-0.9-0.5-0.8-0.9-0.3-1.6
		c0.9-1.2,2.1-2.1,3.3-2.9c3.3-2,6.4-3.3,10.4-3C231.9,233.1,236.1,234.3,240,236.4z"/>
	<path class="st2" d="M111.1,236.4c5.1-2.5,10.2-4.2,15.9-3.5c3,0.5,5.8,1.8,8,3.9c1,0.8,2,1.8,2.8,2.8c-2.1,1.9-4.8,3.1-7.6,3.3
		c-6.2,0.5-12.4-1.2-17.4-4.9l-1.3-1.1L111.1,236.4z"/>
	<path class="st2" d="M114.7,195.6c0.2,4.4-1.7,8.6-5.1,12c-0.4,0.4-0.6,0.2-0.9-0.1c-2.1-1.7-3.5-4.2-3.9-6.9
		c-1.1-6,0.2-12.1,3.4-17.3c0.5-0.8,0.8-0.7,1.4-0.1C112.6,186.8,114.4,191.1,114.7,195.6z"/>
	<path class="st2" d="M236,197.1c-0.2-2.8,0.4-5.5,1.7-8c1.1-2.1,2.3-4,3.3-6.1c1.1-2.1,0.7-0.2,0.9,0.1c1.7,1.8,2.9,4.1,3.4,6.5
		c1.4,4.3,1.4,8.9,0,13.2c-0.6,1.9-1.7,3.5-3.3,4.6c-0.3,0.3-0.7,0.3-1,0.1c-0.1-0.1-0.1-0.1-0.2-0.2C238,204.4,236.1,201,236,197.1
		z"/>
	<path class="st2" d="M243.3,175.7c0.2-3.5,1.1-6.9,2.8-9.9c0.6-1.2,0.7-1.2,1.5-0.2c3.3,3.8,5.5,8.4,6.5,13.3
		c0.7,3.7-0.3,7.6-2.7,10.5c-0.4,0.5-0.7,0.3-1.1,0.1c-2-1.2-3.6-2.9-4.7-4.9C243.9,182,243.1,178.9,243.3,175.7z"/>
	<path class="st2" d="M239.1,227.8c-2.4,0.1-4.7-0.2-7-0.9c-0.7-0.3-0.9-0.5-0.5-1.4c2-4.4,5.6-7,10.1-8.3s9.5-1.1,14.1,0.5
		c0.6,0.2,0.6,0.5,0.2,0.9C252.1,223.3,245.5,227.8,239.1,227.8z"/>
	<path class="st2" d="M224.3,213.9c0-3.9,2.7-8.6,5.2-11.5c1.1-1.3,2.6-1.8,3.7-3.1c1.1-1.3,0.5,0.2,0.5,0.5c0.6,1.5,1,3.1,1.3,4.7
		c0.8,4.8,0,9.8-2.2,14.2c-1,2.1-2.7,3.8-4.7,5c-0.5,0.3-0.9,0.3-1.3-0.4C225.6,220.4,224.3,217.4,224.3,213.9z"/>
	<path class="st2" d="M144.2,254.5c-4.2,0.2-8.1-1.3-12-2.7c-0.7-0.3-0.3-0.5,0-0.8c1.6-1.4,3.3-2.6,5.1-3.7c2-1.3,4.3-2.1,6.7-2.3
		c3.6-0.4,7.1-0.5,10.5,1.1c1.2,0.5,2.3,1.2,3.3,2.1c0.8,0.6,0.7,1.1,0,1.8c-2.1,2-4.8,3.3-7.7,3.9
		C148.1,254.3,146.1,254.5,144.2,254.5z"/>
	<path class="st2" d="M248.3,210.2H248c-2.2-0.2-2.2-0.2-1.6-2.4s2.9-5.2,5.1-7.3s5.8-3.2,9-3.8c2.4-0.4,4.9-0.6,7.3-0.5
		c0.4,0,1.1-0.2,0.5,0.6c-2.3,3.8-4.7,7.3-8.4,9.9C256.5,209.2,252.4,210.3,248.3,210.2z"/>
	<path class="st2" d="M113.8,227.8c-7.3-0.4-14.2-3.7-19.2-9.1c-0.1-0.1-0.2-0.3-0.3-0.5c-0.1-0.4,0.4-0.6,0.6-0.7
		c2.9-1.2,7.7-1.2,10.8-0.8c6,0.7,10.8,3.3,13.7,8.8c0.5,0.8,0.3,1.1-0.5,1.3C117.2,227.3,115.5,227.7,113.8,227.8z"/>
	<path class="st2" d="M219.3,251.6c-2,0.8-4.2,1.5-6.3,2c-5.1,1.4-10.5,1.1-15.5-0.8c-1.8-0.7-3.4-1.9-4.6-3.4
		c-0.5-0.5-0.5-0.9,0.2-1.3c6.6-4.2,13.3-4.2,20.3-0.9C215.6,248.2,217.6,249.7,219.3,251.6z"/>
	<path class="st2" d="M126.4,213.7c0.2,3.2-0.6,6.4-2.3,9.1c-0.5,0.8-0.9,0.9-1.7,0.5c-3.3-1.8-5.1-4.9-6.1-8.3
		c-1.4-4.9-1.2-10.2,0.5-15c0.2-0.6,0.4-0.9,1.1-0.4C122.6,203,126,208.2,126.4,213.7z"/>
	<path class="st2" d="M275.6,172.7c-2.4,5.4-4.3,10.9-9.2,14.6c-2.8,2-6.1,3.1-9.5,3.2c-0.8,0.1-1-0.2-0.9-1
		c0.8-8.6,5.8-13.4,13.7-15.6C271.7,173.2,273.7,172.8,275.6,172.7z"/>
	<path class="st2" d="M75.5,172.6c6.4,1.2,12.4,2.8,16.4,8.3c1.8,2.5,2.7,5.5,2.8,8.6c0.1,0.9-0.3,1.1-1.1,1
		c-5.7-0.5-10.3-2.8-13.5-7.6C78.1,179.7,76.6,176.2,75.5,172.6z"/>
	<path class="st2" d="M160.8,242.5c0,2.4,0,2.4-2.1,1.9c-6.4-1.3-10.3-5.4-12.7-11.2c-0.9-2.3-1.6-4.7-2.2-7.1
		c-0.1-0.5-0.3-1.1,0.6-0.8c4.4,1.2,8.5,2.8,11.8,6.1C159.3,234.3,160.9,238.3,160.8,242.5z"/>
	<path class="st2" d="M85.7,196.3c7-0.6,12.4,2.4,16.8,7.5c1.1,1.5,1.9,3.1,2.4,4.9c0.4,1-0.1,1.1-0.8,1.2c-4,0.6-8.1-0.2-11.7-2.3
		c-3.9-2.4-6.8-5.8-9.3-9.5c-0.4-0.5-1.2-1.1-0.9-1.7s1.2-0.1,1.8-0.2L85.7,196.3z"/>
	<path class="st2" d="M206.9,225.2c-1,5.1-2.3,9.9-5.6,13.8c-2.7,3.2-6.6,5.2-10.8,5.6c-0.6,0.1-0.6-0.3-0.6-0.6
		c0-6.4,2.1-11.8,7.9-15.3c2.7-1.5,5.6-2.7,8.6-3.4L206.9,225.2z"/>
	<path class="st2" d="M141.9,229.5c0,2-0.3,3.9-0.9,5.8c-0.2,0.5-0.4,0.6-0.9,0.3c-2.7-1.9-6.1-3.3-8-6.1c-1.9-2.8-2.6-6.1-3.2-9.3
		c-0.3-2-0.5-4-0.4-6.1c0-0.8,0.4-1.1,1.1-0.7c4,2.5,8.1,5,10.5,9.4C141.4,224.9,142,227.2,141.9,229.5z"/>
	<path class="st2" d="M222.1,216.6c0.1,3.6-0.6,7.1-2,10.4c-1.4,3.5-4.2,5.2-7.2,7.3c-1,0.6-2.3,2-3,1.4c-0.7-0.5-0.7-2.2-0.8-3.4
		c-0.6-7.1,2.4-12.3,8-16.3c1.4-0.9,2.8-1.8,4.3-2.4c0.6-0.3,0.7-0.2,0.7,0.5S222,215.8,222.1,216.6z"/>
	<path class="st2" d="M171.9,133.7l-4.2-0.9c-1.5-0.4-3.2-0.5-4.5,0.7c-1.4,1.3-0.7,0-1-0.3c-0.4-0.7-0.6-1.5-0.5-2.3
		c-0.1-0.6-0.1-1.2-0.7-1.5c-0.3-0.1-0.4-0.4-0.4-0.7c0.1-0.4,0.5-0.3,0.7-0.3c0.3,0,1.8,0.5,2.8,0.8c1,0.3,0.5,0.3,0.7,0
		c0.2-0.3,0.1-0.6-0.2-0.8l-1-1.1c-0.3-0.2-0.4-0.6-0.4-0.9c0.1-0.4,0.5-0.2,0.7-0.2c1.4-0.2,2.7,0.3,3.5,1.4c1.1,1.3,2.2,2.6,3.2,4
		L171.9,133.7z"/>
	<path class="st2" d="M177.8,130.2c-2.1-2.5-5.1-4.3-8.3-4.9c-2.1-0.3-4.2-0.4-6.2-0.3c-1,0-1.9-0.7-1.9-1.4c0.1-1,0.9-1.9,1.9-2.1
		c0.8-0.1,1.7,0.3,2.4-0.4c0.7-0.6,0.5-0.1,0.8,0c4.5,1.6,8.5,4,11,8.2l0.3,0.5C177.9,129.9,177.9,130,177.8,130.2z"/>
	<path class="st2" d="M126.6,96.9l-2-3l-5-2.7l1.1-0.7l2.3,1.4l1.7,1l0,0c-0.1-0.6-0.2-1.3-0.2-2l-0.2-2.6l1.1-0.7l0.2,5.7l1.9,3.2
		L126.6,96.9z"/>
	<path class="st2" d="M129,92c0.5,1,1.7,1.4,2.6,1c0.1,0,0.2-0.1,0.2-0.1c0.5-0.3,1-0.6,1.4-1.1l0.5,0.6c-0.4,0.6-1,1-1.6,1.4
		c-1.3,0.9-3.1,0.5-4-0.9c-0.1-0.1-0.1-0.2-0.2-0.3c-0.9-1.6-0.6-3.4,1-4.3c1.6-0.9,3.2,0.3,3.7,1.3l0.2,0.5L129,92z M131.5,89.7
		c-0.3-0.8-1.3-1.2-2.1-0.9c0,0-0.1,0-0.1,0.1c-0.8,0.5-1.1,1.6-0.6,2.4L131.5,89.7z"/>
	<path class="st2" d="M133.5,87.7l-0.7-1.5l0.9-0.4l0.5,0.9l0,0c0.1-0.8,0.6-1.5,1.4-1.8c0.7-0.3,1.5-0.2,2.1,0.4l0,0
		c0-0.4,0.2-0.7,0.4-1c0.2-0.4,0.6-0.8,1.1-1c0.7-0.4,2.1-0.4,3,1.6l1.4,3.3l-1,0.5l-1.4-3.2c-0.5-1.1-1.2-1.5-2-1.2
		c-0.5,0.3-0.9,0.8-0.8,1.4c0,0.2,0.1,0.4,0.2,0.5l1.5,3.4l-1,0.5l-1.5-3.3c-0.4-0.9-1.1-1.4-1.9-1c-0.6,0.3-0.9,1-0.8,1.6
		c0,0.2,0.1,0.4,0.2,0.5l1.5,3.3l-1,0.5L133.5,87.7z"/>
	<path class="st2" d="M144.8,84.7c0.3,1.1,1.3,1.7,2.4,1.5c0.1,0,0.2-0.1,0.3-0.1c0.6-0.2,1.1-0.4,1.5-0.8l0.5,0.7
		c-0.6,0.5-1.2,0.8-1.9,1c-1.5,0.6-3.2-0.1-3.8-1.6c-0.1-0.1-0.1-0.3-0.1-0.4c-0.6-1.7,0-3.5,1.7-4.1c1.7-0.5,3,0.8,3.3,1.9v0.5
		L144.8,84.7z M147.7,82.9c-0.2-0.9-1.1-1.4-2-1.2c0,0-0.1,0-0.1,0c-0.9,0.4-1.3,1.3-1.1,2.3L147.7,82.9z"/>
	<path class="st2" d="M150,81.3l-0.5-1.6l1-0.3l0.3,1l0,0c0.2-0.8,0.9-1.4,1.7-1.6c0.8-0.2,2.3-0.1,2.8,2l0.9,3.5l-1.1,0.3l-0.9-3.4
		c-0.3-1-0.8-1.6-1.9-1.4c-0.7,0.2-1.1,0.8-1.2,1.4c0,0.2,0,0.4,0.1,0.5l0.9,3.5l-1.1,0.3L150,81.3z"/>
	<path class="st2" d="M161.6,83.3l-3.3-8.1l1.2-0.2l1.6,4.2l1,2.8l0,0c0-0.9,0.2-1.9,0.4-3l0.6-4.4l1.2-0.2l1.6,4.2
		c0.4,1,0.7,2,1,2.8l0,0c0.1-1,0.2-1.9,0.3-3l0.5-4.4l1.2-0.2l-1.4,8.8l-1.2,0.2l-1.6-4.2c-0.4-0.9-0.7-1.8-0.9-2.7l0,0
		c0,0.9-0.1,1.9-0.3,2.8l-0.6,4.5L161.6,83.3z"/>
	<path class="st2" d="M175.9,79c0.2,1.6-1,3.1-2.6,3.3c-0.1,0-0.3,0-0.4,0c-1.6,0.1-3.1-1.2-3.2-2.8c0-0.1,0-0.2,0-0.3
		c-0.2-1.6,1-3.1,2.6-3.3c0.1,0,0.3,0,0.4,0c1.6-0.2,3,1,3.2,2.6C175.9,78.7,175.9,78.8,175.9,79z M171,79.3c0.1,1.4,0.9,2.4,2,2.3
		c1.1-0.1,1.9-1.1,1.8-2.4c-0.1-1.4-0.6-2.4-2-2.3C171.4,76.9,170.9,78.1,171,79.3L171,79.3z"/>
	<path class="st2" d="M177.5,77.5c0-0.6,0.1-1.2,0-1.6h1v1l0,0c0.4-0.7,1.2-1.1,2-1c0.8,0,1.5,0.6,1.7,1.4l0,0
		c0.2-0.3,0.4-0.5,0.7-0.7c0.4-0.3,0.9-0.4,1.4-0.4c0.8,0.1,2,0.6,1.9,2.8l-0.2,3.6H185l0.2-3.4c0.1-1.2-0.4-1.9-1.3-2
		c-0.6,0-1.1,0.4-1.4,0.9c-0.1,0.2-0.1,0.4-0.1,0.5l-0.2,3.8h-1.1l0.2-3.7c0.1-1-0.4-1.7-1.2-1.7c-0.6,0-1.2,0.4-1.4,1
		c-0.1,0.2-0.1,0.4-0.1,0.5l-0.2,3.7h-1.3L177.5,77.5z"/>
	<path class="st2" d="M188.9,80.1c-0.3,1.1,0.4,2.1,1.5,2.4c0.1,0,0.2,0,0.3,0c0.6,0.1,1.2,0.1,1.8-0.1v0.8
		c-0.7,0.2-1.4,0.2-2.1,0.1c-1.6-0.1-2.8-1.5-2.7-3.1c0-0.1,0-0.3,0.1-0.4c0.3-1.8,1.6-3.1,3.4-2.8s2.3,2.1,2.2,3.3v0.5L188.9,80.1z
		 M192.3,79.8c0.2-0.9-0.3-1.8-1.2-2c0,0-0.1,0-0.1,0c-1-0.1-1.8,0.6-2,1.5L192.3,79.8z"/>
	<path class="st2" d="M195.1,79.4c0.2-0.6,0.3-1.1,0.3-1.6l1,0.2l-0.2,1l0,0c0.6-0.6,1.4-0.8,2.3-0.6c0.8,0.2,2.1,1,1.6,3.1
		l-0.8,3.5l-1.1-0.3l0.8-3.4c0.2-1,0-1.8-1-2.1c-0.7-0.1-1.4,0.2-1.7,0.8l-0.2,0.5l-0.8,3.6l-1.1-0.3L195.1,79.4z"/>
	<path class="st2" d="M207.4,78.4l-1.6,4.8c-0.6,1.8-0.1,2.9,1,3.3c1.1,0.4,2.3-0.1,2.9-1.9l1.6-4.8l1.1,0.4l-1.6,4.7
		c-0.9,2.4-2.5,3-4.3,2.4c-1.8-0.5-2.6-2-1.8-4.4l1.6-4.7L207.4,78.4z"/>
	<path class="st2" d="M213,84.8l0.6-1.5l0.9,0.5l-0.4,1l0,0c0.7-0.5,1.6-0.5,2.4-0.2c0.8,0.4,1.8,1.4,1,3.3l-1.4,3.3l-1.1-0.5
		l1.4-3.3c0.4-0.9,0.4-1.8-0.6-2.3c-0.7-0.3-1.4-0.1-1.9,0.5l-0.3,0.5l-1.4,3.4l-1.1-0.5L213,84.8z"/>
	<path class="st2" d="M217.6,91.8l2.8-5.4l1,0.5l-2.8,5.4L217.6,91.8z M222.3,85.4c-0.2,0.3-0.7,0.4-1,0.1c-0.2-0.2-0.3-0.5-0.2-0.7
		c0.2-0.3,0.6-0.5,1-0.3c0,0,0,0,0,0C222.4,84.7,222.5,85,222.3,85.4C222.3,85.4,222.3,85.4,222.3,85.4z"/>
	<path class="st2" d="M226.6,93.4c-0.8,1.5-2.6,2.1-4.1,1.4c-0.1,0-0.1-0.1-0.2-0.1c-1.4-0.8-1.9-2.6-1.1-4.1c0-0.1,0.1-0.1,0.1-0.2
		c0.7-1.5,2.5-2.2,4-1.5c0.1,0.1,0.3,0.1,0.4,0.2c1.4,0.7,2,2.5,1.2,3.9C226.8,93.1,226.7,93.3,226.6,93.4z M222.3,90.9
		c-0.6,1.2-0.5,2.4,0.5,3s2.2,0.1,2.8-1.1c0.6-1.2,0.7-2.3-0.5-3S222.9,89.8,222.3,90.9z"/>
	<path class="st2" d="M228.7,93l0.9-1.4l0.8,0.5l-0.5,0.9l0,0c0.8-0.3,1.7-0.2,2.4,0.3c0.7,0.5,1.5,1.7,0.4,3.4l-2.1,3l-0.9-0.6
		l2-2.9c0.5-0.8,0.7-1.7-0.2-2.4c-0.6-0.4-1.4-0.3-1.9,0.1l-0.4,0.4l-2.1,3.1l-0.9-0.6L228.7,93z"/>
	<path class="st2" d="M238.8,82.2c0-1.4-0.1-2.9-0.5-4.2c-0.5-1.4-1.6-2.5-3-2.9c-0.4-0.1-0.9-0.1-0.8-0.6c0.1-0.5,0.6-0.5,1-0.5
		c3.2-0.6,5.6,1.2,6.1,4.8c0.3,1.8,0.4,3.7,0.8,5.5c0.1,0.6,0.4,1.1,0.9,1.4l4.4,3.6c0.6,0.5,0.8,0.3,1-0.4c0.1-0.2,0.1-0.4,0.1-0.5
		c-0.3-2.3,1.4-2.7,3.1-3.3c1.6-0.5,0.7-0.1,0.7,0.5c-0.1,1.3-0.5,2.6-1.2,3.7c-0.5,1.2-1.2,2.2-2.1,3.2c-1.1,1.2-1.7,1.3-3.1,0.3
		l-4-3.2l-17.7-14.5c-2-1.6-2.2-2.9-0.7-5c1.4-2.1,4.6-5.9,6.9-8.8c0.3-0.4,2.7-0.7,3-0.5c0.3,0.3,0.2,1.1-0.2,1.5l-4.2,5.2
		l-2.1,2.6c-0.7,0.6-0.7,1.6-0.1,2.3c0.1,0.1,0.2,0.2,0.4,0.3L238.8,82.2z"/>
	<path class="st2" d="M179.1,55.8c0.2,1.1,0.1,2.3-0.3,3.3c-0.4,0.9-0.1,1.3,0.9,1.4h2.9c0.7,0,0.8-0.5,0.7-1c0-1.3,0.8-2.6,1.9-3.3
		c0.5-0.2,0.5,0.1,0.5,0.5c-0.1,0.8-0.2,1.6-0.4,2.4c-0.2,0.8,0,1.2,0.7,1.4l0.8,0.3c2.4,0.6,2.8,0.3,2.3-2.1
		c-0.2-0.6,1-2.5,1.6-2.6s0.5,0.5,0.5,0.7c0.2,1.1,0.3,2.3,0.2,3.4c-0.1,0.7,0.2,1,0.9,1l6.4,0.3c0.7,0,0.8-0.2,0.5-0.8l-0.3-0.5
		c-0.3-0.6-1.1-1.3-0.8-1.9c0.4-0.9,1-1.8,1.6-2.5c0.2-0.3,0.5-0.2,0.6,0c0.2,0.2,0.4,0.4,0.5,0.7c0.9,2.5,1.2,5.1,0.8,7.7
		c0,0.6-0.5,1.1-1,1.1c-0.1,0-0.2,0-0.3,0l-10.9-0.5c-1.9-0.1-3.8-0.5-5.6-1.2c-0.3-0.2-0.7-0.2-1.1,0c-1.6,0.9-3.5,0.8-5.1-0.1
		c-0.6-0.4-1.4-0.5-2-0.1c-0.7,0.3-1.4,0.4-2.1,0.4c-1.6,0.1-3.3,0-4.9-0.3c-1.3-0.1-2.3-1.2-2.3-2.5c-0.4-2.4,0.1-4.8,0.1-7.1
		c0.1-1.1,0.1-2.3,0.1-3.4c-0.2-1.6,1-2.4,2-3c1-0.6,0.9,0.3,0.8,0.9c-0.1,2.4-0.2,4.7-0.4,7.1s-0.2,2.3-0.2,3.3s0.5,1.5,1.5,1.6
		l5.2,0.3c0.6,0,1.1-0.3,1-0.8C176.6,59.1,178.1,56.9,179.1,55.8z"/>
	<path class="st2" d="M216.4,61.4c0.2,0.3,0,0.5-0.1,0.6c-0.1,0.2-0.9,1.6-0.2,2.4c0.9,1,2.1,1.8,3.4,2.2c0.5,0.1,0.6-0.3,0.7-0.6
		c0.4-1.1,0.8-2.3,1-3.5c0.2-0.9,2.2-2.4,3.1-2.2c0.9,0.2,0.5,0.5,0.4,0.7c-0.8,3.2-2.3,6.2-4.4,8.7c-0.4,0.5-1.1,0.6-1.6,0.3
		c-1.7-0.7-3.2-1.6-4.7-2.6c-1-0.6-1.3-1.8-0.8-2.8c0,0,0,0,0-0.1C213.9,63.1,215.1,62,216.4,61.4z"/>
	<path class="st2" d="M154.5,63.3c0-1,0.4-2,1.2-2.7c0.4-0.4,0.3-0.5,0-0.9c-0.3-0.4-1.2-1.4-0.3-2.9l1.2-1.8
		c1.2-1.7,2.9-1.9,4.7-1.8c1.8,0.1,1.3,0.6,0.7,1.5l-0.2,0.4c-0.4,0.8-0.6,1.6-1.9,0.8c-0.9-0.4-1.8-0.3-2.6,0.2
		c-0.7,0.4-0.6,0.7-0.1,1.1c0.7,0.4,1.5,0.6,2.4,0.6c1.2,0.1,2.4,0,3.5-0.2c0.7-0.1,0.9,0.1,0.6,0.8c-0.3,1.1-1.2,1.9-2.4,2.1
		C158.9,61,156.6,61.9,154.5,63.3z"/>
	<path class="st2" d="M250.7,96.6c0.2-0.7,0.6-1.3,1.2-1.8c2.2-2.8,4.1-5.9,6.1-8.9c1.1-1.4,2.6-1.4,4.2-1.7s0.3,0.3,0.1,0.5
		c-2.6,3.4-4.8,7.2-7.7,10.4C253.6,96.3,252.1,96.3,250.7,96.6z"/>
	<path class="st2" d="M135.3,48.8l3.3,5.2c0.8,1.4,1.6,2.7,2.4,4.1c1.3,1.7,1.6,4,0.8,6c-0.3,0.1-0.4-0.2-0.5-0.4
		c-1.6-3.2-3.7-6-5.6-9S134.4,51.7,135.3,48.8z"/>
	<path class="st2" d="M251.4,79.9c0.2-0.4-0.3-0.9,0.3-1.2c0.6-0.3,1.3-0.4,2-0.4c0.5,0.2,0.5,0.8,0.5,1.4c0.1,0.5,0.4,1.1,1.2,0.8
		c0.8-0.3,1.4-0.1,1.4,1l0,0c0.4,1.7-0.5,2.5-2.1,2.4c-0.3,0-0.5-0.2-0.5-0.5c-0.1-0.2-0.1-0.5-0.1-0.7c0.1-1.2-0.5-1.4-1.5-1.1
		s-0.8-0.1-0.9-0.6C251.5,80.4,251.4,80.3,251.4,79.9z"/>
	<path class="st2" d="M131.9,74.4v0.7c-0.4,1.5-0.4,1.5-1.8,1c-1.4-0.5-1.1-0.1-1.1,0.6c0,0.7-0.6,1.3-1.5,0.9h-0.2
		c-0.8-0.1-1.5-0.9-1.4-1.7c0-0.3,0.2-0.6,0.4-0.8c0.3-0.5,0.8-0.3,1.2-0.2c0.4,0.1,1.5,0.2,1.5-1s0.3-0.8,0.9-0.6l1.4,0.4
		C131.7,73.7,132.1,74,131.9,74.4z"/>
	<path class="st2" d="M198.9,52.3c-1-0.4-1.9-1-2.7-1.6c-0.2-0.1,0-0.4,0.1-0.5l1-1.4h0.1c0.5-0.5,0.8-0.1,1.1,0.2
		c0.3,0.3,1.8,0.6,1.7,1.7C200,51.3,199.5,51.9,198.9,52.3z"/>
	<path class="st2" d="M138.1,64.6l-5.6-10c-0.5-1.1-1.3-2.1-2.3-2.8c-0.1,0.5-0.2,1-0.4,1.4c-0.4,1-0.2,2.2,0.5,3.1
		c1.4,2.1,2.7,4.3,4.2,6.4c0.5,0.6,0.4,1.1-0.4,1.4l-3.3,1.7c-2.1,1.1-2.1,1.1-3.4-0.7c-0.7-0.9-1.4-1.7-2.3-2.4
		c-0.3-0.3-0.7-0.4-1.1-0.3c-0.5,0.2-0.3,0.6-0.3,1c-0.4,1.7,0,3.1,1.9,3.7l0.4,0.3c0.5,0.4,0.6,0.6-0.1,1l-5.8,3.1
		c-0.4,0.2-0.9,0.2-1.2-0.2c-1.1-1.1-2.3-2.1-3.6-2.9c-1.2-0.6-1.9-0.4-2.5,0.8c-0.2,0.5-0.4,1-0.4,1.5c0,1.1,0.1,2.1,0,3.2
		s-2,2.9-3.6,3.7c-1.6,0.8-1.1-0.9-1.7-1.2c-0.6-0.3-1.1-1.4-1.8-1.1c-0.7,0.3-0.2,1.3-0.3,1.9c-0.2,0.8,0.1,1.6,0.8,2.1
		c0.8,0.5,1.5,1.2,2.1,2c0.9,1.3,0.8,1.9-0.1,3.1c-0.9,1.1-2,2-3.2,2.8c-2.4,1.6-4.6,0.9-5.5-2c-0.4-1.3-0.6-2.6-0.6-3.9
		c0-0.4,0.1-0.8-0.5-0.9c-0.5-0.1-0.5,0.5-0.5,0.8c-0.4,3.3,0.9,6.7,3.3,9c0.8,0.7,1.8,1.1,2.9,0.9c4.2-0.6,7.1-4.6,6.4-8.8
		c0-0.3-0.1-0.6-0.2-0.9c-0.2-0.5-0.1-0.8,0.5-1.1c1.3-0.5,2.2-1.6,2.4-3c0.1-0.4,0.2-0.4,0.5-0.3c1.4,0.5,3,0.2,4.2-0.6
		c2-1.3,4.2-2.2,6.1-3.3c2-1.1,3.9-2.4,6-3.3s5-2.6,7.5-3.9c0.6-0.2,0.8-0.9,0.6-1.4C138.2,64.7,138.2,64.7,138.1,64.6z M116.7,73.2
		c-0.7,0.4-1.4,0.6-2.2,0.6c-0.3-0.1-0.8,0.3-0.8-0.5c-0.1-0.8,0.5-1.6,1.4-1.7c0.8,0,1.5,0.4,1.9,1.1C117.2,73,117,73.1,116.7,73.2
		z"/>
	<path class="st2" d="M100.5,77.4c-1-0.4-1.9-1-2.7-1.6c-0.2-0.1,0-0.4,0.1-0.5l1-1.4H99c0.5-0.5,0.8-0.1,1.1,0.2s1.8,0.6,1.7,1.7
		C101.6,76.4,101.1,77,100.5,77.4z"/>
	<path class="st3" d="M53,273.6h-2.5l-0.5-0.3c-0.2-0.2-0.3-0.5-0.3-0.8c0-1,0.3-2,0.6-3c0.2-0.5,0.4-0.8,0.6-0.8
		c0.3,0,0.6,0.2,0.9,0.4l0.8,0.6c0.5,0.4,0.8,0.9,0.9,1.5C53.5,272.1,53.3,272.9,53,273.6z M52.9,266.9l-0.9,0.8l-0.6-0.5l-0.5,0.5
		l-1-1.1l0.8-0.8l0.6,0.5l0.6-0.5L52.9,266.9z M52.5,271.8c-0.1-0.3-0.2-0.6-0.5-0.9c-0.2-0.3-0.5-0.5-0.8-0.5l-0.3,0.2v0.3
		c-0.1,0.2-0.1,0.4-0.1,0.6c0,0.2,0.1,0.4,0.4,0.4H52.5z"/>
	<path class="st3" d="M60.2,271.8v1.8H58l-0.3-0.5l-0.4,0.5h-3c-0.2-0.2-0.3-0.5-0.3-0.7c0-0.2,0-0.4,0.1-0.6l0.3-0.8h0.1
		c0,0.2,0.2,0.5,0.5,0.5h2.1l-0.9-1.7l0.7-1.4l1.7,3.2L60.2,271.8z"/>
	<path class="st3" d="M66.3,272.6h-1c-0.4,0.1-0.7,0.3-1,0.5l-0.3,0.3l-0.6,0.2h-3.6v-1.8h4.3l-0.9-0.5l-0.5-0.3l-0.8-0.3h-0.5
		l0.5-0.6l0.5-0.5c0.2-0.2,0.4-0.3,0.6-0.4l0.8,0.3l0.8,0.5l1.7,0.8l1.4,0.3h0.2l-0.5,0.7h2.1v1.8H67l-0.5-0.3
		C66.3,273.2,66.2,272.9,66.3,272.6z"/>
	<path class="st3" d="M71.4,273.6h-2.1v-1.8h2.2l-0.2-0.7l1.1-1.1l0.5,1.8h1.6v1.8H72l-0.2-0.5L71.4,273.6z M73.3,268.1l-0.9,0.8
		l-0.6-0.5l-0.5,0.5l-1.1-1.1L71,267l0.6,0.5l0.6-0.5L73.3,268.1z"/>
	<path class="st3" d="M77.1,268.3l0.3,2.8c0,0.2,0.1,0.4,0.2,0.6l0.5,0.5l1,0.7l-1,1.5l-1.4-1.1l-0.2,0.3h-2.4v-1.8h2.2l-0.3-4.1
		c-0.3-0.1-0.4-0.2-0.4-0.4v-0.2l0.2-0.3l0.5-0.9c0,0.2,0.1,0.3,0.2,0.5l0.5,0.3l1,0.5l-0.5,1.4L77.1,268.3z"/>
	<path class="st3" d="M81.3,266l0.3,2.1l-0.3,0.3l0,0v0.9c0,0.5,0,0.9,0,1.3c0,0.6-0.1,1.3-0.3,1.9c-0.2,0.6-0.6,1.1-1,1.5
		c0-0.3,0-0.7,0-1.2c0-0.5,0-0.9,0-1.4l-0.3-3.8L81.3,266z"/>
	<path class="st3" d="M92.8,271.8v1.8h-2.2l-0.5,1.1l-3.2-1.9v-1.2l-1.2,0.8l0.2,2.7c0,0.2-0.1,0.4-0.2,0.6l-0.2,0.5l-0.5,1v-1.4
		l-0.2-1.2c-0.1-0.4-0.1-0.8-0.2-1.3c0-0.1,0-0.2,0-0.3V273c0.1-0.7,0.4-1.5,0.8-2.1c0.7-0.6,1.5-1,2.4-1.2c0.6-0.2,1.3-0.3,2-0.4
		c0.2,0,0.5,0,0.6,0.2c0.1,0.2,0.2,0.5,0.2,0.7v1.4L92.8,271.8z M90.1,272.6v-1.1c0-0.2-0.2-0.4-0.4-0.4c-0.6,0-1.1,0.1-1.6,0.3
		L90.1,272.6z"/>
	<path class="st3" d="M92.3,271.8H94v-0.2l0.5-0.8l0.7-1.1c0.5-0.6,0.9-0.9,1.2-0.9s0.7,0.3,1.2,0.9l0.4,1c0.1,0.3,0.2,0.7,0.2,1
		c-0.1,0.6-0.3,1.2-0.6,1.7l-0.4,0.7l-3-1.4l-0.5,0.7h-1.4V271.8z M97.2,272.2c0-0.4-0.1-0.7-0.2-1.1c-0.2-0.4-0.4-0.6-0.7-0.6h-0.2
		l-0.3,0.2l-0.3,0.4l-0.3,0.4L97.2,272.2z"/>
	<path class="st3" d="M104.9,267.5l-0.8,1.2l-0.2-0.2c-0.4,0.6-0.8,1.1-1.3,1.6l0.7,1l0.2,0.3v0.4c0,0.2-0.1,0.5-0.2,0.7v0.2
		l-0.4,0.9h-3.6l0.3-1.9l0.2-0.2l0.6-0.6l0.3-0.3l0.3-0.4h0.3l-0.2-0.2l-0.5-0.5L100,269h-0.1l-0.3,0.2l-0.4-0.4
		c-0.3-0.3-0.5-0.6-0.5-1c0-0.5,0.2-1,0.5-1.4l0.2-0.2c0.2,0,0.5,0.3,1,0.9l0.6,0.8l0.7,1.1l0.5-0.8l0.3-0.7
		c-0.2-0.1-0.3-0.3-0.3-0.5c0-0.2,0.1-0.3,0.3-0.5l0.3-0.3l0.6-0.6v0.3c0,0.3,0.1,0.5,0.4,0.6L104.9,267.5z M101.1,264.2l-0.3,0.8
		l-0.8,0.2c-0.4,0.1-0.7,0.4-1,0.7c0-0.4,0.1-0.7,0.4-1c-0.3-0.1-0.5-0.3-0.5-0.6c0-0.3,0.1-0.5,0.3-0.7l0.5-0.6l0.7-0.2
		c0.4,0,0.5,0.1,0.5,0.3v0.2h-0.1l-0.2,0.4h-0.5c-0.3,0-0.5,0.1-0.7,0.3c0.3,0.3,0.7,0.5,1.2,0.5L101.1,264.2z M102.6,271.8
		l-0.7-0.9h-0.1l-0.4,0.4l-0.5,0.5L102.6,271.8z"/>
	<path class="st3" d="M108.7,271.8v1.8h-2.5c-0.5,0-0.7-0.2-0.7-0.6v-5.5l1.4-1.5v5.2c0,0.4,0.1,0.6,0.2,0.6L108.7,271.8
		L108.7,271.8z"/>
	<path class="st3" d="M110.9,269.2c0.4,0.5,0.7,1.2,0.6,1.9c0,0.5-0.2,1-0.4,1.5l-0.4,1h-2.7v-1.8h2.4c-0.1-0.4-0.3-0.8-0.5-1.2
		L110.9,269.2z M109.7,275.5l0.8-0.8l1.2,1l-0.8,0.8L109.7,275.5z"/>
	<path class="st3" d="M122.6,271.8v1.8h-1.8v0.2l-0.4,0.9l-0.5,1.1c-0.6,0.4-1.3,0.8-2,1L117,277c-0.6,0-1.1-0.2-1.4-0.6
		c-0.4-0.4-0.6-1-0.5-1.5c0.1-1.1,0.4-2.2,0.9-3.2v0.2c-0.1,0.4-0.2,0.9-0.2,1.4c0,1,0.3,1.7,0.9,2l0.6,0.2c0.5,0,1-0.2,1.4-0.5
		l0.8-0.6c-0.5-0.3-1.2-0.5-1.8-0.5l0.8-1.7L122.6,271.8z M115.6,278.9l0.9-0.8l0.6,0.5l0.5-0.5l1.1,1.1L118,280l-0.6-0.5l-0.6,0.5
		L115.6,278.9z"/>
	<path class="st3" d="M128.7,271.8l-0.6,1.8h-6v-1.8h1.9c-0.1-0.2-0.1-0.4-0.1-0.6c0-0.5,0.2-1,0.5-1.4c0.3-0.7,1-1.2,1.8-1.3
		c0.5,0,0.9,0.2,1.2,0.6c0.3,0.4,0.5,0.8,0.6,1.3c-0.4-0.3-0.9-0.5-1.4-0.5c-0.4,0-0.8,0.1-1.1,0.4l-0.5,0.5c0.3,0.4,0.7,0.7,1.1,1
		L128.7,271.8z"/>
	<path class="st3" d="M133,271.8v1.8h-2.5c-0.5,0-0.7-0.2-0.7-0.6v-5.5l1.4-1.5v5.2c0,0.4,0.1,0.6,0.2,0.6L133,271.8L133,271.8z"/>
	<path class="st3" d="M139.9,271.8v1.8h-2.2l-0.5,1.2l-3-1.8l-0.4,0.6h-1.4v-1.8h2c0.1-0.5,0.4-1,0.7-1.4c0.5-0.6,1.3-1,2.1-1
		c0.5,0,0.7,0.1,0.8,0.4c0,0.1,0,0.2,0,0.4v1.7L139.9,271.8z M137.2,272.7v-1.3c0-0.3-0.2-0.5-0.5-0.5l-0.6,0.2l-0.5,0.5
		L137.2,272.7z"/>
	<path class="st3" d="M141.6,273.6h-2.2v-1.8h2.2l-0.2-0.7l1.1-1.1l0.5,1.8h1.6v1.8h-2.4l-0.2-0.5L141.6,273.6z M143.5,268.1
		l-0.9,0.8l-0.6-0.5l-0.5,0.5l-1.1-1.1l0.8-0.8l0.6,0.5l0.6-0.5L143.5,268.1z"/>
	<path class="st3" d="M152.5,271.1l-1,1.7l-1.4-0.2c-0.5,0-1.1,0.2-1.4,0.6l-0.3,0.3l-0.6,0.2h-3.6v-1.8h4.7l-1.2-0.5
		c-0.4-0.3-0.8-0.5-1.3-0.5H146l0.5-0.6l0.5-0.5c0.2-0.2,0.4-0.3,0.6-0.4l0.8,0.3l0.8,0.5l1.8,0.8L152.5,271.1z M150,275.5l-0.8,0.8
		l-1.2-1l0.8-0.8L150,275.5z"/>
	<path class="st3" d="M159.1,267.5l-0.8,1.2l-0.2-0.2c-0.4,0.6-0.8,1.1-1.3,1.6l0.7,1l0.2,0.3v0.4c0,0.2-0.1,0.5-0.2,0.7v0.2
		l-0.4,0.9h-3.7l0.3-1.9l0.2-0.2l0.6-0.6l0.3-0.3l0.3-0.4h0.1L155,270l-0.5-0.5L154,269h-0.1l-0.3,0.2l-0.4-0.4
		c-0.3-0.3-0.5-0.6-0.5-1c0-0.5,0.2-1,0.5-1.4l0.2-0.2c0.2,0,0.5,0.3,1,0.9l0.6,0.8l0.7,1.1l0.5-0.8l0.3-0.7
		c-0.2-0.1-0.3-0.3-0.3-0.5c0-0.2,0.1-0.3,0.3-0.5l0.3-0.3l0.6-0.6v0.3c0,0.3,0.1,0.5,0.4,0.6L159.1,267.5z M155.3,276.3l-0.3,0.8
		H155l-0.7,0.2c-0.4,0.2-0.7,0.4-1,0.7c0-0.4,0.1-0.7,0.4-1c-0.3,0-0.5-0.3-0.5-0.6c0,0,0,0,0,0c0-0.3,0.1-0.5,0.3-0.7l0.5-0.6
		l0.7-0.2c0.4,0,0.5,0.1,0.5,0.3v0.2h-0.1l-0.2,0.4h-0.5c-0.3,0-0.6,0.1-0.7,0.4c0.3,0.3,0.7,0.5,1.2,0.5L155.3,276.3z M156.8,271.8
		l-0.7-0.9H156l-0.4,0.4l-0.5,0.5L156.8,271.8z"/>
	<path class="st3" d="M161,266l0.3,2.1l-0.3,0.3l0,0v0.9c0,0.5,0,0.9,0,1.3c0,0.6-0.1,1.3-0.3,1.9c-0.2,0.6-0.6,1.1-1,1.5
		c0-0.3,0-0.7,0-1.2c0-0.5,0-0.9,0-1.4l-0.3-3.8L161,266z"/>
	<path class="st3" d="M164.7,273.6h-0.6c-0.4,0-0.9,0-1.3-0.2l-0.5-0.5c-0.1-0.2-0.2-0.4-0.2-0.6c0.1-0.8,0.3-1.6,0.8-2.3l0.3-0.5
		c0.2-0.3,0.5-0.5,0.8-0.5c0.3,0,0.6,0.2,0.9,0.6c0.4,0.5,0.6,1.2,0.7,1.8c0.1,0.4,0.1,0.7,0.1,1.1c0,0.6-0.1,1.2-0.4,1.8
		c-0.2,0.6-0.5,1.1-0.9,1.5c-0.2,0.5-0.7,0.7-1.2,0.5c-0.2-0.1-0.3-0.2-0.4-0.4c-0.3-0.4-0.7-0.7-0.9-1.2h0.8c0.4,0,0.8-0.1,1.2-0.4
		C164.3,274.3,164.6,274,164.7,273.6z M164.6,271.8c-0.1-0.7-0.3-1.1-0.6-1.1l-0.5,0.2c-0.1,0.1-0.2,0.3-0.2,0.5
		c0,0.3,0.2,0.5,0.5,0.5H164.6z"/>
	<path class="st3" d="M175.1,270.6L175.1,270.6l-0.9-0.2c-0.6,0-1.1,0.3-1.4,0.8l1.7,0.8h0.3l0.2,0.2v0.5l-0.2,0.4l-1,2.1
		c-0.9,0.7-1.9,1-3,1.1c-0.6,0-1.1-0.3-1.4-0.7c-0.4-0.5-0.6-1-0.5-1.6c0.1-1.1,0.4-2.2,0.9-3.2v0.2c-0.1,0.4-0.1,0.9-0.1,1.4
		c0,1.4,0.5,2.2,1.6,2.2c0.4,0,0.8-0.1,1.2-0.4c0.4-0.2,0.7-0.5,1-0.8l-1.5-0.7c-0.3-0.1-0.5-0.3-0.5-0.5c0-0.4,0.2-0.7,0.4-1
		l0.5-0.9l0.8-0.9c0.4-0.4,1-0.6,1.6-0.6c0.6,0,0.9,0.2,0.9,0.5v0.5L175.1,270.6z M169.8,278.3l0.9-0.8l0.6,0.5l0.5-0.5l1.1,1.1
		l-0.8,0.8l-0.6-0.5l-0.6,0.5L169.8,278.3z"/>
	<path class="st3" d="M178.6,271.8c-0.1-0.3-0.3-0.7-0.5-0.9l-0.9-0.5l0.6-1.4l0.8,0.5c0.6,0.4,1,1.1,1,1.9c0,0.5-0.1,0.9-0.3,1.4
		l-0.4,1h-3l0.4-1.8H178.6z"/>
	<path class="st3" d="M184,271.8v1.8h-2.5c-0.5,0-0.7-0.2-0.7-0.6v-5.5l1.4-1.5v5.2c0,0.4,0.1,0.6,0.2,0.6L184,271.8L184,271.8z"/>
	<path class="st3" d="M187.7,273.6l-0.3-0.6l-0.5,0.6h-3.5v-1.8h3.5l-0.5-1.4l0.9-1.2l1.1,2.5h0.2v1.8H187.7z M188.3,271.8h0.5
		l1.7-1.3l1.6-1l0.9-0.4c0.3,0,0.6,0.2,0.9,0.4c0.6,0.4,1,1,1.1,1.7c0,0.2,0,0.4-0.1,0.6h1.7v1.8h-8.3V271.8z M193.9,271.8
		c-0.1-0.3-0.4-0.6-0.6-0.9c-0.3-0.3-0.6-0.4-1-0.5l-0.8,0.4l-0.7,0.5l-0.9,0.6L193.9,271.8z"/>
	<path class="st3" d="M198.1,273.6H196v-1.8h2.2l-0.2-0.7l1.1-1.1l0.5,1.8h1.6v1.8h-2.4l-0.2-0.5L198.1,273.6z M200,268.1l-0.9,0.8
		l-0.6-0.5l-0.5,0.5l-1.1-1.1l0.8-0.8l0.6,0.5l0.6-0.5L200,268.1z"/>
	<path class="st3" d="M205.1,273.6h-4.5v-1.8h4.3v-0.9l-0.4,0.5H203l-0.4-0.2c-0.2-0.3-0.3-0.6-0.3-0.9c0-0.5,0.2-1,0.5-1.4
		c0.4-0.7,0.8-1.1,1.3-1.1c0.4,0,0.9,0.6,1.4,1.7c0.1,0.5,0.2,1,0.2,1.4c0,0.6-0.1,1.2-0.3,1.7L205.1,273.6z M205.6,266.4l-0.9,0.8
		l-0.6-0.5l-0.5,0.5l-1.1-1.1l0.8-0.8l0.6,0.5l0.6-0.5L205.6,266.4z M204.8,269.8c-0.1-0.5-0.3-0.7-0.6-0.7l-0.4,0.2
		c-0.1,0.1-0.2,0.2-0.2,0.4c0,0.1,0.1,0.2,0.2,0.2H204.8L204.8,269.8z"/>
	<path class="st3" d="M212.5,267.5l-0.8,1.2l-0.2-0.2c-0.4,0.6-0.8,1.1-1.3,1.6l0.7,1l0.2,0.3v0.4c0,0.2-0.1,0.5-0.2,0.7v0.2
		l-0.4,0.9h-3.7l0.3-1.9l0.2-0.2l0.6-0.6l0.3-0.3l0.3-0.4h0.1l-0.2-0.2l-0.5-0.5l-0.6-0.5h-0.1l-0.3,0.2l-0.4-0.4
		c-0.3-0.3-0.5-0.6-0.5-1c0-0.5,0.2-1,0.5-1.4l0.2-0.2c0.2,0,0.5,0.3,1,0.9l0.6,0.8l0.7,1.1l0.5-0.8l0.3-0.7
		c-0.2-0.1-0.3-0.3-0.3-0.5c0-0.2,0.1-0.3,0.3-0.5l0.3-0.3l0.6-0.6v0.3c0,0.3,0.1,0.5,0.4,0.6L212.5,267.5z M208.7,276.3l-0.3,0.8
		h-0.1l-0.7,0.2c-0.4,0.2-0.7,0.4-1,0.7c0-0.4,0.1-0.7,0.4-1c-0.3,0-0.5-0.3-0.5-0.6c0,0,0,0,0,0c0-0.3,0.1-0.5,0.3-0.7l0.5-0.6
		l0.7-0.2c0.4,0,0.5,0.1,0.5,0.3v0.2h-0.1l-0.2,0.4h-0.5c-0.3,0-0.6,0.1-0.7,0.4c0.3,0.3,0.7,0.5,1.2,0.5L208.7,276.3z M210.3,271.8
		l-0.7-0.9h-0.1l-0.4,0.4l-0.5,0.5L210.3,271.8z"/>
	<path class="st3" d="M214.4,266l0.3,2.1l-0.3,0.3l0,0v0.9c0,0.5,0,0.9,0,1.3c0,0.6-0.1,1.3-0.3,1.9c-0.2,0.6-0.6,1.1-1,1.5
		c0-0.3,0-0.7,0-1.2c0-0.5,0-0.9,0-1.4l-0.3-3.8L214.4,266z"/>
	<path class="st3" d="M223.4,273.6v0.2c-0.1,0.5-0.3,1-0.5,1.4v0.2c-0.7,0.6-1.7,0.9-2.6,1c-0.5,0-1-0.2-1.4-0.6
		c-0.4-0.5-0.7-1.1-0.6-1.7c0-0.7,0.2-1.4,0.5-2.1l0.5-1.1v0.3c-0.1,0.7-0.2,1.2-0.2,1.4c0,1.4,0.5,2.1,1.5,2.1c0.5,0,1-0.2,1.4-0.5
		l0.7-0.5c-0.2-0.8-0.5-1.6-1-2.4l1-1.3c0.3,0.6,0.6,1.2,0.7,1.9L223.4,273.6z M223.2,271.8h1.9l-0.5-1.4l0.8-1.2l1.1,2.5h1.3
		c-0.1-0.4-0.3-0.8-0.5-1.2l1-1.4c0.4,0.5,0.6,1.2,0.6,1.9c0,0.2,0,0.5-0.1,0.7h1.7v1.8h-1.7l-0.4-0.6l-0.3,0.6h-2.3l-0.3-0.6
		l-0.5,0.6h-2L223.2,271.8z"/>
	<path class="st3" d="M234.7,271.8v1.8h-2.9c-0.2,0-0.3-0.2-0.4-0.4l-0.3,0.5h-1.4v-1.8h1.7v-4.2l1.4-1.6v5.5c0,0.1,0,0.2,0.1,0.3
		L234.7,271.8L234.7,271.8z"/>
	<path class="st3" d="M240.7,272.6h-1c-0.4,0.1-0.7,0.3-1,0.5l-0.3,0.3l-0.6,0.2h-3.6v-1.8h4.3l-0.9-0.5l-0.5-0.3l-0.8-0.3H236
		l0.5-0.6l0.5-0.5c0.2-0.2,0.4-0.3,0.6-0.4l0.8,0.3l0.8,0.5l1.7,0.8l1.4,0.3h0.2l-0.5,0.7h2.1v1.8h-2.8l-0.5-0.3
		C240.7,273.2,240.6,272.9,240.7,272.6z M240,275.4l-0.8,0.8l-1.2-1l0.8-0.8L240,275.4z"/>
	<path class="st3" d="M246.9,268.3l0.3,2.8c0,0.2,0.1,0.4,0.2,0.6l0.5,0.5l1,0.7l-1,1.5l-1.4-1.1l-0.2,0.3h-2.4v-1.8h2.2l-0.3-4.1
		c-0.3-0.1-0.4-0.2-0.4-0.4v-0.2l0.2-0.3l0.5-0.9c0,0.2,0.1,0.3,0.2,0.5l0.5,0.3l1,0.5l-0.5,1.4L246.9,268.3z"/>
	<path class="st3" d="M253,271.8v1.8h-2.5c-0.5,0-0.7-0.2-0.7-0.6v-5.5l1.4-1.5v5.2c0,0.4,0.1,0.6,0.2,0.6L253,271.8L253,271.8z"/>
	<path class="st3" d="M255.2,269.2c0.4,0.5,0.7,1.2,0.6,1.9c0,0.5-0.2,1-0.4,1.5l-0.4,1h-2.7v-1.8h2.4c-0.1-0.4-0.3-0.8-0.5-1.2
		L255.2,269.2z M254,275.5l0.8-0.8l1.2,1l-0.8,0.8L254,275.5z"/>
	<path class="st3" d="M263.4,270.3c0.5,0.7,0.8,1.5,0.8,2.4c0,0.5-0.1,1-0.3,1.4c-0.2,0.4-0.4,0.9-0.6,1.3c-0.5,0.7-0.9,1.1-1.4,1.1
		s-1-0.6-1.7-1.8l0.9,0.2c0.5,0,0.9-0.2,1.3-0.5c0.4-0.3,0.6-0.7,0.8-1.2h0.1l-0.5-0.9l-0.5-0.7L263.4,270.3z"/>
	<path class="st3" d="M268.7,271.8v1.8h-2.5c-0.5,0-0.7-0.2-0.7-0.6v-5.5l1.4-1.5v5.2c0,0.4,0.1,0.6,0.2,0.6L268.7,271.8
		L268.7,271.8z"/>
	<path class="st3" d="M272.5,273.6l-0.3-0.6l-0.5,0.6h-3.5v-1.8h3.5l-0.5-1.4l0.9-1.2l1.1,2.5h0.2v1.8H272.5z M272.9,271.8h1.9
		l-0.5-1.4l0.8-1.2l1.1,2.5h1.3c-0.1-0.4-0.3-0.8-0.5-1.2l1-1.4c0.4,0.5,0.6,1.2,0.6,1.9c0,0.2,0,0.5-0.1,0.7h1.7v1.8h-1.7l-0.4-0.6
		l-0.3,0.6h-2.3l-0.3-0.6l-0.5,0.6h-2L272.9,271.8z M276.5,267.6l-0.9,0.8l-0.6-0.5l-0.5,0.5l-1.1-1.1l0.8-0.8l0.6,0.5l0.5-0.5
		L276.5,267.6z M275.6,265.6l-0.8,0.8l-1.1-1l0.8-0.8L275.6,265.6z"/>
	<path class="st3" d="M281.7,273.6h-2.1v-1.8h2.2l-0.2-0.7l1.1-1.1l0.5,1.8h1.6v1.8h-2.4l-0.2-0.5L281.7,273.6z M283.6,268.1
		l-0.9,0.8l-0.6-0.5l-0.5,0.5l-1.1-1.1l0.8-0.8l0.6,0.5l0.6-0.5L283.6,268.1z"/>
	<path class="st3" d="M288.4,273.6l-0.3-0.6l-0.5,0.6h-3.5v-1.8h3.5l-0.5-1.4l0.9-1.2l1.1,2.5h0.2v1.8H288.4z M288.8,271.8h2
		l-0.5-1.4l0.8-1.2l1.1,2.5h1.3c-0.1-0.4-0.3-0.8-0.5-1.2l1-1.4c0.4,0.5,0.6,1.2,0.6,1.9c0,0.2,0,0.5-0.1,0.7h1.7v1.8h-1.7l-0.4-0.6
		l-0.3,0.6h-2.3l-0.3-0.6l-0.5,0.6h-2L288.8,271.8z"/>
	<path class="st3" d="M295.5,271.8h1.6v-0.2l0.5-0.8l0.7-1.1c0.5-0.6,0.9-0.9,1.2-0.9c0.3,0,0.7,0.3,1.2,0.9l0.4,1
		c0.1,0.3,0.2,0.7,0.2,1c-0.1,0.6-0.3,1.2-0.6,1.7l-0.4,0.7l-3-1.4l-0.5,0.7h-1.5L295.5,271.8z M300.4,272.2c0-0.4-0.1-0.7-0.2-1.1
		c-0.2-0.4-0.4-0.6-0.7-0.6h-0.2l-0.3,0.2l-0.3,0.4l-0.3,0.4L300.4,272.2z"/>
	<path class="st3" d="M93.7,289.2c-0.6,0.3-1.3,0.4-2,0.4c-1,0-2-0.3-2.7-1c-0.8-0.8-1.2-1.9-1.1-3c0-1.1,0.3-2.2,1.1-3
		c0.8-0.8,1.8-1.2,2.9-1.2H93l0.6,0.3l-0.3,0.8c-0.5-0.2-1-0.4-1.5-0.4c-1.9,0-2.9,1.1-3,3.3s0.9,3.2,2.9,3.2c0.6,0,1.1-0.1,1.6-0.4
		L93.7,289.2z"/>
	<path class="st3" d="M97.6,289.6c-0.7,0-1.4-0.3-1.9-0.8c-0.5-0.6-0.8-1.3-0.8-2.1c0-0.8,0.2-1.6,0.8-2.3c0.5-0.5,1.2-0.8,1.9-0.8
		c0.7,0,1.4,0.3,1.9,0.8c0.5,0.6,0.8,1.3,0.8,2.1c0.1,0.9-0.3,1.7-0.9,2.4C98.9,289.3,98.2,289.6,97.6,289.6L97.6,289.6z
		 M97.6,288.7c0.5,0,0.9-0.3,1.2-0.6c0.3-0.5,0.5-1,0.5-1.6c0-0.5-0.1-1-0.4-1.4c-0.3-0.5-0.7-0.7-1.3-0.7c-0.5,0-1,0.3-1.3,0.7
		c-0.3,0.5-0.4,1-0.5,1.5c0,0.5,0.1,1.1,0.5,1.5C96.6,288.5,97.1,288.7,97.6,288.7L97.6,288.7z"/>
	<path class="st3" d="M102.2,285.3c0-0.6,0-1.1-0.1-1.5h0.9v0.9l0,0c0.1-0.3,0.4-0.5,0.6-0.7c0.3-0.2,0.8-0.4,1.2-0.4h0.6l0.6,0.4
		c0.2,0.2,0.4,0.4,0.5,0.7c0.1,0.4,0.2,0.8,0.2,1.2v3.4h-0.8V286c0-0.4-0.1-0.8-0.3-1.2c-0.2-0.3-0.6-0.5-1-0.5
		c-0.3,0-0.6,0.1-0.8,0.3c-0.2,0.2-0.4,0.4-0.5,0.7c-0.1,0.1-0.1,0.3-0.1,0.5v3.4h-1V285.3z"/>
	<path class="st3" d="M109.1,288.4l0.6,0.3l0.7,0.2c0.3,0,0.6-0.1,0.8-0.3c0.2-0.2,0.3-0.4,0.3-0.6c0-0.2-0.1-0.5-0.3-0.6l-0.8-0.5
		c-1-0.4-1.4-0.9-1.4-1.6c0-0.5,0.2-0.9,0.5-1.2c0.4-0.3,0.9-0.5,1.4-0.5c0.5,0,1,0.1,1.4,0.4l-0.3,0.7l-0.5-0.2h-0.7
		c-0.2,0-0.5,0-0.6,0.2c-0.2,0.1-0.3,0.3-0.3,0.5c0,0.2,0.1,0.4,0.3,0.5l0.8,0.5c0.8,0.2,1.4,0.9,1.4,1.7c0,0.5-0.2,1-0.5,1.3
		c-0.4,0.3-1,0.5-1.5,0.5c-0.5,0-1.1-0.1-1.5-0.4L109.1,288.4z"/>
	<path class="st3" d="M119,287.8c0,0.6,0,1.1,0.1,1.5h-0.9v-0.9l0,0c-0.2,0.3-0.4,0.5-0.6,0.7c-0.3,0.2-0.8,0.4-1.2,0.4h-0.6
		l-0.6-0.4c-0.2-0.2-0.4-0.5-0.5-0.8c-0.1-0.4-0.2-0.8-0.2-1.2v-3.4h1v3.2c0,0.4,0.1,0.9,0.3,1.3c0.2,0.3,0.5,0.5,0.9,0.5
		c0.3,0,0.6-0.1,0.8-0.3c0.2-0.2,0.4-0.4,0.5-0.6c0.1-0.2,0.1-0.4,0.1-0.5v-3.5h1L119,287.8z"/>
	<path class="st3" d="M121.2,281.1h1v8.3h-1V281.1z"/>
	<path class="st3" d="M125.7,282.4v1.4h1.4v0.8h-1.4v3.1c0,0.7,0.2,1.1,0.7,1.1h0.5v0.8l-0.9,0.2c-0.4,0-0.8-0.2-1.1-0.5
		c-0.3-0.5-0.4-1-0.4-1.5v-3.1h-0.7v-0.9h0.8v-1.1L125.7,282.4z"/>
	<path class="st3" d="M132.7,288.1c0,0.5,0,0.9,0.1,1.4h-0.9v-0.7l0,0c-0.2,0.2-0.4,0.4-0.6,0.5l-1,0.3c-0.9,0-1.7-0.6-1.7-1.5
		c0,0,0-0.1,0-0.1c0-1.4,1.1-2.1,3.3-2.1l0,0c0-0.1,0-0.3,0-0.5l-0.2-0.5l-0.4-0.4h-0.7c-0.5,0-1,0.2-1.4,0.5l-0.3-0.7
		c0.5-0.3,1.2-0.5,1.8-0.5l1.1,0.2c0.3,0.1,0.5,0.3,0.6,0.5c0.2,0.2,0.3,0.5,0.4,0.7c0.1,0.3,0.1,0.6,0.1,0.9L132.7,288.1z
		 M131.7,286.5h-0.8l-0.7,0.2l-0.5,0.4c-0.2,0.2-0.2,0.5-0.2,0.7c0,0.5,0.3,0.9,0.8,1c0,0,0.1,0,0.1,0c0.3,0,0.6-0.1,0.9-0.3
		c0.2-0.2,0.4-0.4,0.5-0.6c0-0.1,0-0.2,0-0.4V286.5z"/>
	<path class="st3" d="M134.9,285.3c0-0.6,0-1.1-0.1-1.5h0.9v0.9l0,0c0.1-0.3,0.4-0.5,0.6-0.7c0.3-0.2,0.8-0.4,1.2-0.4h0.8l0.6,0.4
		c0.2,0.2,0.4,0.4,0.5,0.7c0.1,0.4,0.2,0.8,0.2,1.2v3.4h-1V286c0-0.4-0.1-0.8-0.3-1.2c-0.2-0.3-0.6-0.5-1-0.5
		c-0.3,0-0.6,0.1-0.8,0.3c-0.2,0.2-0.4,0.4-0.5,0.7c-0.1,0.1-0.1,0.3-0.1,0.5v3.4h-1V285.3z"/>
	<path class="st3" d="M143,282.4v1.4h1.4v0.8H143v3.1c0,0.7,0.2,1.1,0.7,1.1h0.5v0.8l-0.9,0.2c-0.4,0-0.8-0.2-1.1-0.5
		c-0.3-0.5-0.4-1-0.4-1.5v-3.1h-0.8v-0.9h0.8v-1.1L143,282.4z"/>
	<path class="st3" d="M149.6,282.7c-0.2,0-0.3-0.1-0.5-0.2c-0.1-0.1-0.2-0.3-0.2-0.5c0-0.2,0.1-0.3,0.2-0.5l0.5-0.2l0.5,0.2
		c0.1,0.1,0.2,0.3,0.2,0.5c0,0.2-0.1,0.3-0.2,0.5L149.6,282.7z M149.2,289.5v-5.7h0.9v5.7H149.2z"/>
	<path class="st3" d="M152.3,285.3c0-0.6,0-1.1-0.1-1.5h0.9v0.9l0,0c0.1-0.3,0.4-0.5,0.6-0.7c0.3-0.2,0.8-0.4,1.2-0.4h0.6l0.6,0.4
		c0.2,0.2,0.4,0.4,0.5,0.7c0.1,0.4,0.2,0.8,0.2,1.2v3.4h-1V286c0-0.4-0.1-0.8-0.3-1.2c-0.2-0.3-0.6-0.5-1-0.5
		c-0.3,0-0.6,0.1-0.8,0.3c-0.2,0.2-0.4,0.4-0.5,0.7c-0.1,0.1-0.1,0.3-0.1,0.5v3.4h-1L152.3,285.3z"/>
	<path class="st3" d="M163.4,282.4v1.4h1.4v0.8h-1.4v3.1c0,0.7,0.2,1.1,0.7,1.1h0.5v0.8l-0.9,0.2c-0.4,0-0.8-0.2-1.1-0.5
		c-0.3-0.5-0.4-1-0.4-1.5v-3.1h-0.8v-0.9h0.8v-1.1L163.4,282.4z"/>
	<path class="st3" d="M166.5,281.1h1v3.5l0,0c0.4-0.6,1-1,1.7-1h0.6l0.6,0.4c0.2,0.2,0.4,0.4,0.5,0.7c0.1,0.4,0.2,0.8,0.2,1.3v3.3
		h-1V286c0-0.4-0.1-0.8-0.3-1.2c-0.2-0.3-0.6-0.5-1-0.5c-0.3,0-0.6,0.1-0.8,0.3c-0.2,0.2-0.4,0.4-0.5,0.7c-0.1,0.1-0.1,0.3-0.1,0.5
		v3.4h-1L166.5,281.1z"/>
	<path class="st3" d="M174.1,286.8c0,0.6,0.2,1.1,0.5,1.5c0.4,0.3,0.8,0.5,1.3,0.5h0.9l0.6-0.2l0.2,0.7l-0.7,0.3h-1.1
		c-0.8,0-1.5-0.3-2-0.8c-0.5-0.6-0.8-1.3-0.7-2.1c0-0.8,0.2-1.6,0.7-2.2c0.4-0.6,1.2-0.9,1.9-0.9c0.4,0,0.8,0.1,1.1,0.3
		c0.3,0.2,0.5,0.4,0.7,0.7c0.2,0.3,0.3,0.6,0.4,0.9c0.1,0.3,0.1,0.6,0.1,0.9c0,0.2,0,0.3,0,0.5L174.1,286.8z M177,286
		c0-0.4-0.1-0.8-0.3-1.1l-0.5-0.5l-0.7-0.2c-0.4,0-0.8,0.2-1.1,0.5l-0.3,0.5v0.5L177,286z"/>
	<path class="st3" d="M183.8,281.5v4.7c0.1,1.7,0.7,2.5,1.8,2.5c1.1,0,1.8-0.8,1.9-2.5v-4.7h1v4.6c0.1,0.9-0.2,1.9-0.8,2.6
		c-0.6,0.5-1.3,0.8-2.1,0.8c-0.7,0-1.5-0.3-2-0.8c-0.6-0.7-0.9-1.7-0.8-2.6v-4.7L183.8,281.5z"/>
	<path class="st3" d="M190.8,285.3c0-0.6,0-1.1-0.1-1.5h0.9v0.9l0,0c0.1-0.3,0.4-0.5,0.6-0.7c0.3-0.2,0.8-0.4,1.2-0.4h0.6l0.6,0.4
		c0.2,0.2,0.4,0.4,0.5,0.7c0.1,0.4,0.2,0.8,0.2,1.2v3.4h-1V286c0-0.4-0.1-0.8-0.3-1.2c-0.2-0.3-0.6-0.5-1-0.5
		c-0.3,0-0.6,0.1-0.8,0.3c-0.2,0.2-0.4,0.4-0.5,0.7c-0.1,0.1-0.1,0.3-0.1,0.5v3.4h-1L190.8,285.3z"/>
	<path class="st3" d="M198.3,282.7c-0.2,0-0.3-0.1-0.5-0.2c-0.1-0.1-0.2-0.3-0.2-0.5c0-0.2,0.1-0.3,0.2-0.5l0.5-0.2l0.5,0.2
		c0.1,0.1,0.2,0.3,0.2,0.5c0,0.2-0.1,0.3-0.2,0.5L198.3,282.7z M197.8,289.5v-5.7h1v5.7H197.8z"/>
	<path class="st3" d="M202.2,282.4v1.4h1.4v0.8h-1.4v3.1c0,0.7,0.2,1.1,0.7,1.1h0.5v0.8l-0.9,0.2c-0.4,0-0.8-0.2-1.1-0.5
		c-0.3-0.5-0.4-1-0.4-1.5v-3.1h-0.8v-0.9h0.8v-1.1L202.2,282.4z"/>
	<path class="st3" d="M205.9,286.8c0,0.6,0.2,1.1,0.5,1.5c0.4,0.3,0.8,0.5,1.3,0.5h0.9l0.6-0.2l0.2,0.7l-0.7,0.3h-1.1
		c-0.8,0-1.5-0.3-2-0.8c-0.5-0.6-0.8-1.3-0.7-2.1c0-0.8,0.2-1.6,0.7-2.2c0.4-0.6,1.2-0.9,1.9-0.9c0.4,0,0.8,0.1,1.1,0.3
		c0.3,0.2,0.5,0.4,0.7,0.7c0.2,0.3,0.3,0.6,0.4,0.9c0.1,0.3,0.1,0.6,0.1,0.9c0,0.2,0,0.3,0,0.5L205.9,286.8z M208.7,286
		c0-0.4-0.1-0.8-0.3-1.1l-0.5-0.5l-0.7-0.2c-0.4,0-0.8,0.2-1.1,0.5l-0.3,0.5v0.5L208.7,286z"/>
	<path class="st3" d="M216.3,281.1v6.9c0,0.5,0,1,0.1,1.4h-0.9v-1l0,0c-0.2,0.3-0.4,0.6-0.7,0.8c-0.3,0.2-0.8,0.4-1.2,0.4
		c-0.7,0-1.3-0.3-1.7-0.8c-0.5-0.6-0.7-1.3-0.7-2.1c0-0.8,0.2-1.6,0.7-2.3c0.4-0.5,1.1-0.8,1.7-0.8c0.4,0,0.8,0.1,1.1,0.3
		c0.3,0.1,0.5,0.4,0.6,0.6l0,0v-3.4H216.3z M215.3,286c0-0.2,0-0.3,0-0.5c-0.1-0.3-0.2-0.6-0.5-0.8c-0.3-0.2-0.6-0.4-1-0.4
		c-0.5,0-0.9,0.2-1.2,0.6c-0.3,0.5-0.5,1-0.5,1.5c0,0.5,0.2,1,0.5,1.4c0.4,0.7,1.3,0.8,2,0.4c0.1,0,0.1-0.1,0.2-0.1l0.4-0.4l0.2-0.5
		c0-0.2,0-0.3,0-0.5L215.3,286z"/>
	<path class="st3" d="M221.7,289.5v-8h1.1l2.4,4l0.7,1.4l0.6,1.3l0,0c-0.1-1-0.1-2.1-0.1-3.3v-3.3h0.9v8h-1l-2.4-4
		c-0.5-0.8-1-1.7-1.4-2.6l0,0c0.1,1,0.1,2,0.1,3.3v3.3H221.7z"/>
	<path class="st3" d="M233.6,288.1c0,0.5,0,0.9,0.1,1.4h-0.9v-0.7l0,0c-0.2,0.2-0.4,0.4-0.6,0.5l-1,0.3c-0.9,0-1.7-0.6-1.7-1.5
		c0,0,0-0.1,0-0.1c0-1.4,1.1-2.1,3.3-2.1l0,0c0-0.1,0-0.3,0-0.5l-0.2-0.5l-0.4-0.4h-0.7c-0.5,0-1,0.2-1.4,0.5l-0.3-0.7
		c0.5-0.3,1.2-0.5,1.8-0.5l1.1,0.2c0.3,0.1,0.5,0.3,0.6,0.5c0.2,0.2,0.3,0.5,0.4,0.7c0.1,0.3,0.1,0.6,0.1,0.9L233.6,288.1z
		 M232.6,286.6h-0.8l-0.7,0.2l-0.5,0.4c-0.2,0.2-0.2,0.5-0.2,0.7c0,0.5,0.3,0.9,0.8,1c0,0,0.1,0,0.1,0c0.3,0,0.6-0.1,0.9-0.3
		c0.2-0.2,0.4-0.4,0.5-0.6c0-0.1,0-0.2,0-0.4V286.6z"/>
	<path class="st3" d="M237,282.4v1.4h1.4v0.8H237v3.1c0,0.7,0.2,1.1,0.7,1.1h0.5v0.8l-0.9,0.2c-0.4,0-0.8-0.2-1.1-0.5
		c-0.3-0.5-0.4-1-0.4-1.5v-3.1h-0.8v-0.9h0.8v-1.1L237,282.4z"/>
	<path class="st3" d="M240.7,282.7c-0.2,0-0.3-0.1-0.5-0.2c-0.1-0.1-0.2-0.3-0.2-0.5c0-0.2,0.1-0.3,0.2-0.5l0.5-0.2l0.5,0.2
		c0.1,0.1,0.2,0.3,0.2,0.5c0,0.2-0.1,0.3-0.2,0.5L240.7,282.7z M240.2,289.5v-5.7h1v5.7H240.2z"/>
	<path class="st3" d="M245.6,289.6c-0.7,0-1.4-0.3-1.9-0.8c-0.5-0.6-0.8-1.3-0.8-2.1c0-0.8,0.2-1.6,0.8-2.3c0.5-0.5,1.2-0.8,1.9-0.8
		c0.7,0,1.4,0.3,1.9,0.8c0.5,0.6,0.7,1.3,0.7,2.1c0.1,0.9-0.3,1.7-0.9,2.4c-0.5,0.5-1.2,0.7-1.9,0.7H245.6z M245.6,288.7
		c0.5,0,0.9-0.3,1.2-0.6c0.3-0.5,0.5-1,0.5-1.6c0-0.5-0.1-1-0.4-1.4c-0.3-0.5-0.7-0.7-1.3-0.7c-0.5,0-1,0.3-1.3,0.7
		c-0.3,0.5-0.4,1-0.5,1.5c0,0.5,0.1,1.1,0.5,1.5C244.6,288.5,245.1,288.7,245.6,288.7L245.6,288.7z"/>
	<path class="st3" d="M250.2,285.3c0-0.6,0-1.1-0.1-1.5h0.9v0.9l0,0c0.1-0.3,0.4-0.5,0.6-0.7c0.3-0.2,0.8-0.4,1.2-0.4h0.6l0.6,0.4
		c0.2,0.2,0.4,0.4,0.5,0.7c0.1,0.4,0.2,0.8,0.2,1.2v3.4h-1V286c0-0.4-0.1-0.8-0.3-1.2c-0.2-0.3-0.6-0.5-1-0.5
		c-0.3,0-0.6,0.1-0.8,0.3c-0.2,0.2-0.4,0.4-0.5,0.7c-0.1,0.1-0.1,0.3-0.1,0.5v3.4h-1L250.2,285.3z"/>
	<path class="st3" d="M258.1,281.3c-0.3,1-0.6,1.9-1.1,2.8h-0.6c0.3-0.9,0.5-1.8,0.6-2.7L258.1,281.3z"/>
	<path class="st3" d="M258.7,288.4l0.6,0.3l0.7,0.2c0.3,0,0.6-0.1,0.8-0.3c0.2-0.2,0.3-0.4,0.3-0.6c0-0.2-0.1-0.5-0.3-0.6l-0.8-0.5
		c-1-0.4-1.4-0.9-1.4-1.6c0-0.5,0.2-0.9,0.5-1.2c0.4-0.3,0.9-0.5,1.4-0.5c0.5,0,1,0.1,1.4,0.4l-0.3,0.7l-0.5-0.2h-0.7
		c-0.2,0-0.5,0-0.6,0.2c-0.2,0.1-0.3,0.3-0.3,0.5c0,0.2,0.1,0.4,0.3,0.5l0.8,0.5c0.8,0.2,1.4,0.9,1.4,1.7c0,0.5-0.2,1-0.5,1.3
		c-0.4,0.3-1,0.5-1.5,0.5c-0.5,0-1.1-0.1-1.5-0.4L258.7,288.4z"/>
	<path class="st3" d="M105.3,299.8h-3v2.9h3.3v0.8h-4.3v-8h4.2v0.8h-3.2v2.5h3V299.8z"/>
	<path class="st3" d="M111.4,303.3l-0.6,0.2h-0.9c-0.7,0-1.5-0.3-2-0.8c-0.5-0.6-0.8-1.3-0.7-2.1c0-0.8,0.3-1.6,0.8-2.2
		c0.6-0.6,1.4-0.9,2.2-0.8c0.5,0,0.9,0.1,1.4,0.3l-0.3,0.8l-0.5-0.2H110c-0.6,0-1.1,0.2-1.4,0.6c-0.4,0.4-0.5,1-0.5,1.5
		c0,0.6,0.2,1.1,0.5,1.5c0.4,0.4,0.8,0.6,1.4,0.5h0.7l0.5-0.2L111.4,303.3z"/>
	<path class="st3" d="M115.4,303.7c-0.7,0-1.4-0.3-1.9-0.8c-0.5-0.6-0.8-1.3-0.8-2.1c0-0.8,0.2-1.6,0.8-2.3c0.5-0.5,1.2-0.8,1.9-0.8
		c0.7,0,1.4,0.3,1.9,0.8c0.5,0.6,0.7,1.3,0.7,2.1c0.1,0.9-0.3,1.7-0.9,2.4c-0.5,0.5-1.2,0.7-1.9,0.7H115.4z M115.4,302.8
		c0.5,0,0.9-0.3,1.2-0.6c0.3-0.5,0.5-1,0.5-1.6c0-0.5-0.1-1-0.4-1.4c-0.3-0.5-0.7-0.7-1.3-0.7c-0.5,0-1,0.3-1.3,0.7
		c-0.3,0.5-0.4,1-0.5,1.5c0,0.5,0.1,1.1,0.5,1.5C114.4,302.6,114.8,302.8,115.4,302.8L115.4,302.8z"/>
	<path class="st3" d="M120.1,299.4c0-0.6,0-1.1-0.1-1.5h0.9v0.9l0,0c0.1-0.3,0.4-0.5,0.6-0.7c0.3-0.2,0.8-0.4,1.2-0.4h0.6l0.6,0.4
		c0.2,0.2,0.4,0.4,0.5,0.7c0.1,0.4,0.2,0.8,0.2,1.2v3.4h-0.9v-3.3c0-0.4-0.1-0.8-0.3-1.2c-0.2-0.3-0.6-0.5-1-0.5
		c-0.3,0-0.6,0.1-0.8,0.3c-0.2,0.2-0.4,0.4-0.5,0.7c-0.1,0.1-0.1,0.3-0.1,0.5v3.4h-0.9V299.4z"/>
	<path class="st3" d="M129.2,303.7c-0.7,0-1.4-0.3-1.9-0.8c-0.5-0.6-0.8-1.3-0.8-2.1c0-0.8,0.2-1.6,0.8-2.3c0.5-0.5,1.2-0.8,1.9-0.8
		c0.7,0,1.4,0.3,1.9,0.8c0.5,0.6,0.7,1.3,0.7,2.1c0.1,0.9-0.3,1.7-0.9,2.4c-0.5,0.5-1.2,0.7-1.9,0.7H129.2z M129.2,302.8
		c0.5,0,0.9-0.3,1.2-0.6c0.3-0.5,0.5-1,0.5-1.6c0-0.5-0.1-1-0.4-1.4c-0.3-0.5-0.7-0.7-1.3-0.7c-0.5,0-1,0.3-1.3,0.7
		c-0.3,0.5-0.4,1-0.5,1.5c0,0.5,0.1,1.1,0.5,1.5C128.2,302.6,128.6,302.8,129.2,302.8L129.2,302.8z"/>
	<path class="st3" d="M133.8,299.4c0-0.6,0-1.1-0.1-1.5h0.9v0.9l0,0c0.2-0.3,0.4-0.5,0.6-0.7c0.3-0.2,0.7-0.3,1.1-0.3
		c0.4,0,0.7,0.1,1,0.4c0.3,0.2,0.5,0.5,0.6,0.8l0,0c0.2-0.3,0.4-0.5,0.6-0.7l0.5-0.3h1.3l0.6,0.4c0.2,0.2,0.4,0.5,0.5,0.7
		c0.1,0.4,0.2,0.8,0.2,1.3v3.3h-1v-3.3c0-1.1-0.4-1.7-1.3-1.7c-0.3,0-0.6,0.1-0.8,0.3c-0.2,0.2-0.4,0.4-0.5,0.6
		c-0.1,0.2-0.1,0.4-0.1,0.5v3.5h-0.7v-3.4c0-0.4-0.1-0.8-0.3-1.2c-0.2-0.3-0.5-0.5-0.9-0.5c-0.3,0-0.6,0.1-0.8,0.4
		c-0.2,0.2-0.4,0.4-0.5,0.7c-0.1,0.2-0.1,0.4-0.1,0.5v3.4h-1V299.4z"/>
	<path class="st3" d="M144.6,296.8c-0.2,0-0.3-0.1-0.5-0.2c-0.1-0.1-0.2-0.3-0.2-0.5c0-0.2,0.1-0.3,0.2-0.5l0.5-0.2l0.5,0.2
		c0.1,0.1,0.2,0.3,0.2,0.5c0,0.2-0.1,0.3-0.2,0.5L144.6,296.8z M144.2,303.6v-5.7h1v5.7H144.2z"/>
	<path class="st3" d="M151.2,303.3l-0.6,0.2h-1c-0.7,0-1.5-0.3-2-0.8c-0.5-0.6-0.8-1.3-0.7-2.1c0-0.8,0.3-1.6,0.8-2.2
		c0.6-0.6,1.4-0.9,2.2-0.8c0.5,0,0.9,0.1,1.4,0.3l-0.3,0.8l-0.5-0.2h-0.7c-0.6,0-1.1,0.2-1.4,0.6c-0.4,0.4-0.5,1-0.5,1.5
		c0,0.6,0.2,1.1,0.5,1.5c0.4,0.4,0.8,0.6,1.4,0.5h0.7l0.5-0.2L151.2,303.3z"/>
	<path class="st3" d="M159.8,302.2c0,0.5,0,0.9,0.1,1.4H159v-0.7l0,0c-0.2,0.2-0.4,0.4-0.6,0.5l-1,0.3c-0.9,0-1.7-0.6-1.7-1.5
		c0,0,0-0.1,0-0.1c0-1.4,1.1-2.1,3.3-2.1l0,0c0-0.1,0-0.3,0-0.5l-0.2-0.5l-0.4-0.4h-0.7c-0.5,0-1,0.2-1.4,0.5l-0.3-0.7
		c0.5-0.3,1.2-0.5,1.8-0.5l1.1,0.2c0.3,0.1,0.5,0.3,0.6,0.5c0.2,0.2,0.3,0.5,0.4,0.7c0.1,0.3,0.1,0.6,0.1,0.9L159.8,302.2z
		 M158.8,300.7H158l-0.7,0.2l-0.5,0.4c-0.2,0.2-0.2,0.5-0.2,0.7c0,0.5,0.3,0.9,0.8,1c0,0,0.1,0,0.1,0c0.3,0,0.6-0.1,0.9-0.3
		c0.2-0.2,0.4-0.4,0.5-0.6c0-0.1,0-0.2,0-0.4V300.7z"/>
	<path class="st3" d="M162.1,299.4c0-0.6,0-1.1-0.1-1.5h0.9v0.9l0,0c0.1-0.3,0.4-0.5,0.6-0.7c0.3-0.2,0.8-0.4,1.2-0.4h0.6l0.6,0.4
		c0.2,0.2,0.4,0.4,0.5,0.7c0.1,0.4,0.2,0.8,0.2,1.2v3.4h-1v-3.3c0-0.4-0.1-0.8-0.3-1.2c-0.2-0.3-0.6-0.5-1-0.5
		c-0.3,0-0.6,0.1-0.8,0.3c-0.2,0.2-0.4,0.4-0.5,0.7c-0.1,0.1-0.1,0.3-0.1,0.5v3.4h-1L162.1,299.4z"/>
	<path class="st3" d="M173.8,295.2v6.9c0,0.5,0,1,0.1,1.4H173v-1l0,0c-0.2,0.3-0.4,0.6-0.7,0.8c-0.3,0.2-0.8,0.4-1.2,0.4
		c-0.7,0-1.3-0.3-1.7-0.8c-0.5-0.6-0.7-1.3-0.7-2.1c0-0.8,0.2-1.6,0.7-2.3c0.4-0.5,1.1-0.8,1.7-0.8c0.4,0,0.8,0.1,1.1,0.3
		c0.3,0.1,0.5,0.4,0.6,0.6l0,0v-3.3L173.8,295.2z M172.9,300.1c0-0.2,0-0.3,0-0.5c-0.1-0.3-0.2-0.6-0.5-0.8c-0.3-0.2-0.6-0.4-1-0.4
		c-0.5,0-0.9,0.2-1.2,0.6c-0.3,0.5-0.5,1-0.5,1.5c0,0.5,0.2,1,0.5,1.4c0.4,0.7,1.3,0.8,2,0.4c0.1,0,0.1-0.1,0.2-0.1l0.4-0.4l0.2-0.5
		c0-0.2,0-0.3,0-0.5L172.9,300.1z"/>
	<path class="st3" d="M179,302.3c0.5,0.4,1.2,0.6,1.8,0.5c1,0,1.6-0.5,1.6-1.4c0-0.3-0.1-0.7-0.4-0.9c-0.3-0.3-0.7-0.5-1.1-0.6
		c-0.5-0.2-1-0.5-1.4-0.9c-0.4-0.4-0.5-0.8-0.5-1.4c0-0.6,0.3-1.2,0.7-1.5c0.5-0.4,1.1-0.7,1.8-0.6c0.6,0,1.2,0.1,1.7,0.4l-0.3,0.8
		l-0.5-0.3h-0.9c-0.4,0-0.8,0.1-1.1,0.4c-0.5,0.4-0.5,1.2-0.1,1.7c0,0,0,0,0.1,0.1l1.2,0.6c0.5,0.2,1,0.5,1.4,0.9
		c0.3,0.4,0.5,0.9,0.5,1.4c0,0.6-0.2,1.2-0.6,1.6c-0.5,0.5-1.3,0.8-2,0.7c-0.7,0-1.4-0.2-2-0.5L179,302.3z"/>
	<path class="st3" d="M187.6,303.7c-0.7,0-1.4-0.3-1.9-0.8c-0.5-0.6-0.8-1.3-0.8-2.1c0-0.8,0.2-1.6,0.8-2.3c0.5-0.5,1.2-0.8,1.9-0.8
		c0.7,0,1.4,0.3,1.9,0.8c0.5,0.6,0.7,1.3,0.7,2.1c0.1,0.9-0.3,1.7-0.9,2.4c-0.5,0.5-1.2,0.7-1.9,0.7H187.6z M187.6,302.8
		c0.5,0,0.9-0.3,1.2-0.6c0.3-0.5,0.5-1,0.5-1.6c0-0.5-0.1-1-0.4-1.4c-0.3-0.5-0.7-0.7-1.3-0.7c-0.5,0-1,0.3-1.3,0.7
		c-0.3,0.5-0.4,1-0.5,1.5c0,0.5,0.1,1.1,0.5,1.5C186.6,302.6,187,302.8,187.6,302.8L187.6,302.8z"/>
	<path class="st3" d="M196.2,303.3l-0.6,0.2h-1c-0.7,0-1.5-0.3-2-0.8c-0.5-0.6-0.8-1.3-0.7-2.1c0-0.8,0.3-1.6,0.8-2.2
		c0.6-0.6,1.4-0.9,2.2-0.8c0.5,0,0.9,0.1,1.4,0.3l-0.3,0.8l-0.5-0.2h-0.7c-0.6,0-1.1,0.2-1.4,0.6c-0.4,0.4-0.5,1-0.5,1.5
		c0,0.6,0.2,1.1,0.5,1.5c0.4,0.4,0.8,0.6,1.4,0.5h0.7l0.5-0.2L196.2,303.3z"/>
	<path class="st3" d="M198.4,296.8c-0.2,0-0.3-0.1-0.5-0.2c-0.1-0.1-0.2-0.3-0.2-0.5c0-0.2,0.1-0.3,0.2-0.5l0.5-0.2l0.5,0.2
		c0.1,0.1,0.2,0.3,0.2,0.5c0,0.2-0.1,0.3-0.2,0.5L198.4,296.8z M198,303.6v-5.7h1v5.7H198z"/>
	<path class="st3" d="M205,302.2c0,0.5,0,0.9,0.1,1.4h-0.9v-0.7l0,0c-0.2,0.2-0.4,0.4-0.6,0.5l-1,0.3c-0.9,0-1.7-0.6-1.7-1.5
		c0,0,0-0.1,0-0.1c0-1.4,1.1-2.1,3.3-2.1l0,0c0-0.1,0-0.3,0-0.5L204,299l-0.4-0.4H203c-0.5,0-1,0.2-1.4,0.5l-0.3-0.7
		c0.5-0.3,1.2-0.5,1.8-0.5l1.1,0.2c0.3,0.1,0.5,0.3,0.6,0.5c0.2,0.2,0.3,0.5,0.4,0.7c0.1,0.3,0.1,0.6,0.1,0.9L205,302.2z M204,300.7
		h-0.8l-0.7,0.2l-0.5,0.4c-0.2,0.2-0.2,0.5-0.2,0.7c0,0.5,0.3,0.9,0.8,1c0,0,0.1,0,0.1,0c0.3,0,0.6-0.1,0.9-0.3
		c0.2-0.2,0.4-0.4,0.5-0.6c0-0.1,0-0.2,0-0.4V300.7z"/>
	<path class="st3" d="M207.3,295.2h1v8.3h-1V295.2z"/>
	<path class="st3" d="M218.8,303.3c-0.6,0.3-1.3,0.4-2,0.4c-1,0-2-0.3-2.7-1c-0.8-0.8-1.2-1.9-1.1-3c0-1.1,0.3-2.2,1.1-3
		c0.8-0.8,1.8-1.2,2.9-1.2h1.2l0.6,0.3l-0.3,0.8c-0.5-0.2-1-0.4-1.5-0.4c-1.9,0-2.9,1.1-3,3.3c-0.1,2.2,0.9,3.3,3,3.3
		c0.6,0,1.1-0.1,1.6-0.4L218.8,303.3z"/>
	<path class="st3" d="M222.8,303.7c-0.7,0-1.4-0.3-1.9-0.8c-0.5-0.6-0.8-1.3-0.8-2.1c0-0.8,0.2-1.6,0.8-2.3c0.5-0.5,1.2-0.8,1.9-0.8
		c0.7,0,1.4,0.3,1.9,0.8c0.5,0.6,0.7,1.3,0.7,2.1c0.1,0.9-0.3,1.7-0.9,2.4c-0.5,0.5-1.2,0.7-1.9,0.7H222.8z M222.8,302.8
		c0.5,0,0.9-0.3,1.2-0.6c0.3-0.5,0.5-1,0.5-1.6c0-0.5-0.1-1-0.4-1.4c-0.3-0.5-0.7-0.7-1.3-0.7c-0.5,0-1,0.3-1.3,0.7
		c-0.3,0.5-0.4,1-0.5,1.5c0,0.5,0.1,1.1,0.5,1.5C221.8,302.6,222.2,302.8,222.8,302.8L222.8,302.8z"/>
	<path class="st3" d="M232,301.9c0,0.6,0,1.1,0.1,1.5h-0.9v-0.9l0,0c-0.2,0.3-0.4,0.5-0.6,0.7c-0.3,0.2-0.8,0.4-1.2,0.4h-0.6
		l-0.6-0.4c-0.2-0.2-0.4-0.5-0.5-0.8c-0.1-0.4-0.2-0.8-0.2-1.2V298h1v3c0,0.4,0.1,0.9,0.3,1.3c0.2,0.3,0.5,0.5,0.9,0.5
		c0.3,0,0.6-0.1,0.8-0.3c0.2-0.2,0.4-0.4,0.5-0.6c0.1-0.2,0.1-0.4,0.1-0.5v-3.5h1L232,301.9z"/>
	<path class="st3" d="M234.3,299.4c0-0.6,0-1.1-0.1-1.5h0.9v0.9l0,0c0.1-0.3,0.4-0.5,0.6-0.7c0.3-0.2,0.8-0.4,1.2-0.4h0.6l0.6,0.4
		c0.2,0.2,0.4,0.4,0.5,0.7c0.1,0.4,0.2,0.8,0.2,1.2v3.4h-1v-3.3c0-0.4-0.1-0.8-0.3-1.2c-0.2-0.3-0.6-0.5-1-0.5
		c-0.3,0-0.6,0.1-0.8,0.3c-0.2,0.2-0.4,0.4-0.5,0.7c-0.1,0.1-0.1,0.3-0.1,0.5v3.4h-1L234.3,299.4z"/>
	<path class="st3" d="M245.3,303.3l-0.6,0.2h-1c-0.7,0-1.5-0.3-2-0.8c-0.5-0.6-0.8-1.3-0.7-2.1c0-0.8,0.3-1.6,0.8-2.2
		c0.6-0.6,1.4-0.9,2.2-0.8c0.5,0,0.9,0.1,1.4,0.3l-0.3,0.8l-0.5-0.2h-0.7c-0.6,0-1.1,0.2-1.4,0.6c-0.4,0.4-0.5,1-0.5,1.5
		c0,0.6,0.2,1.1,0.5,1.5c0.4,0.4,0.8,0.6,1.4,0.5h0.7l0.5-0.2L245.3,303.3z"/>
	<path class="st3" d="M247.5,296.8c-0.2,0-0.3-0.1-0.5-0.2c-0.1-0.1-0.2-0.3-0.2-0.5c0-0.2,0.1-0.3,0.2-0.5l0.5-0.2l0.5,0.2
		c0.1,0.1,0.2,0.3,0.2,0.5c0,0.2-0.1,0.3-0.2,0.5L247.5,296.8z M247.1,303.6v-5.7h1v5.7H247.1z"/>
	<path class="st3" d="M250.2,295.2h1v8.3h-1V295.2z"/>
</g>
</svg>
